<?xml version="1.0" standalone="no"?>

<svg>

<g 
fill="currentColor" stroke="none">
<path d="M115 5985 c69 -4 181 -4 250 0 69 4 13 7 -125 7 -137 0 -194 -3 -125
-7z"/>
<path d="M880 5986 c120 -20 294 -79 641 -217 515 -206 582 -215 959 -128 279
64 309 66 798 75 893 14 1173 -55 1733 -430 540 -362 588 -362 828 -4 133 199
152 277 121 497 -11 81 -15 164 -9 184 10 33 -1 37 -107 37 l-119 0 -8 -135
c-10 -182 -55 -242 -252 -339 -214 -106 -280 -103 -645 32 -723 266 -1525 321
-2361 162 -391 -75 -511 -57 -1033 151 -295 117 -337 129 -460 126 -75 -1
-113 -6 -86 -11z"/>
<path d="M1242 5991 c20 -20 481 -192 590 -221 156 -40 349 -37 638 11 717
119 1440 100 2120 -58 583 -135 908 -63 962 212 l13 65 -145 0 c-124 0 -152
-7 -203 -49 -134 -113 -450 -138 -897 -72 -535 80 -1253 73 -1848 -19 -438
-68 -654 -50 -980 79 -129 51 -281 83 -250 52z"/>
<path d="M1620 5941 c259 -88 373 -93 790 -31 198 29 495 60 660 69 275 15
258 16 -210 12 -293 -2 -602 -15 -725 -31 -179 -23 -240 -24 -360 -2 -297 53
-344 48 -155 -17z"/>
<path d="M3890 5987 c455 -52 757 -69 885 -49 309 48 238 59 -355 58 -324 -1
-563 -5 -530 -9z"/>
<path d="M550 5917 c-77 -11 -233 -16 -346 -12 -198 8 -206 7 -200 -32 10 -68
211 -100 516 -81 528 33 591 22 1144 -204 526 -215 631 -229 874 -119 301 136
687 179 1203 134 507 -45 778 -151 1279 -506 415 -292 588 -388 810 -449 179
-49 170 -60 170 215 l0 243 -79 -122 c-154 -238 -342 -196 -898 204 -528 379
-794 465 -1503 486 -452 13 -722 -11 -978 -90 -347 -105 -473 -90 -1005 127
-488 200 -706 245 -987 206z"/>
<path d="M0 5728 c0 -83 370 -138 820 -120 410 15 480 2 944 -184 682 -274
788 -287 975 -115 188 173 410 227 831 201 617 -39 822 -115 1480 -551 329
-217 872 -519 935 -519 67 0 2 81 -90 111 -228 75 -496 227 -925 525 -520 362
-761 449 -1334 483 -527 32 -782 -8 -1030 -159 -216 -132 -357 -110 -1002 157
-413 172 -515 187 -1014 156 -199 -13 -270 -9 -415 22 l-175 37 0 -44z"/>
<path d="M0 5544 l0 -57 305 -26 c168 -15 467 -25 665 -23 432 4 498 -10 1022
-214 765 -298 916 -312 980 -89 70 240 280 313 758 266 479 -48 731 -151 1350
-551 426 -275 904 -528 918 -487 4 14 -5 29 -20 34 -131 44 -600 306 -900 505
-715 471 -1008 569 -1661 555 -369 -8 -457 -40 -582 -207 -153 -205 -270 -195
-985 90 -486 193 -522 200 -1010 196 -307 -2 -458 5 -600 30 -245 44 -240 44
-240 -22z"/>
<path d="M55 5356 l-55 -19 0 -480 c0 -491 6 -521 73 -391 26 49 34 124 35
324 3 416 37 448 492 472 868 45 951 34 1613 -219 590 -226 865 -303 979 -274
l54 13 -13 168 c-20 257 22 315 253 353 415 67 862 -82 1594 -533 428 -263
920 -526 920 -491 0 11 -124 83 -275 160 -151 77 -369 200 -485 273 -879 559
-1143 659 -1700 644 -366 -9 -434 -50 -462 -281 -30 -251 -176 -242 -971 62
-621 237 -567 228 -1337 233 -390 3 -683 -2 -715 -14z"/>
<path d="M3430 5234 c-121 -56 -138 -118 -90 -335 38 -170 19 -239 -65 -239
-115 1 -486 121 -1095 356 -518 199 -591 212 -1108 195 -800 -25 -830 -43
-851 -491 -13 -281 -40 -351 -155 -413 -54 -30 -66 -48 -66 -102 0 -76 14 -79
126 -23 187 94 223 160 244 448 28 373 97 427 620 481 588 62 717 40 1470
-251 1097 -422 1168 -428 1040 -80 -120 325 -74 406 237 416 377 12 682 -104
1383 -525 398 -239 857 -481 876 -462 15 16 15 16 -236 141 -249 124 -311 159
-780 447 -560 344 -828 442 -1240 456 -185 6 -266 1 -310 -19z"/>
<path d="M3608 5131 c-115 -50 -117 -139 -6 -415 152 -376 111 -375 -952 33
-914 351 -1009 369 -1571 301 -511 -63 -581 -117 -619 -479 -31 -297 -89 -381
-335 -480 -107 -44 -115 -52 -121 -118 l-6 -71 176 81 c308 142 364 209 405
487 53 358 136 421 658 500 511 76 671 38 1896 -461 726 -296 807 -282 618
106 -151 312 -156 400 -22 456 234 98 641 -37 1329 -439 397 -232 919 -501
937 -483 14 14 45 -4 -275 156 -148 74 -423 226 -610 338 -760 453 -1231 607
-1502 488z"/>
<path d="M3759 5003 c-72 -58 -56 -158 63 -391 226 -442 155 -489 -398 -262
-1510 619 -1629 649 -2176 551 -443 -80 -588 -201 -588 -488 0 -164 -130 -337
-326 -436 -284 -143 -334 -186 -334 -287 l0 -91 155 117 c85 64 208 147 272
185 234 138 280 208 373 574 48 191 181 270 583 346 493 95 838 6 2018 -517
721 -319 836 -275 557 216 -341 601 80 618 1088 44 445 -253 954 -513 954
-486 0 11 -135 87 -300 169 -165 83 -442 234 -615 335 -692 406 -1161 555
-1326 421z"/>
<path d="M3980 4894 c-96 -48 -80 -138 79 -443 154 -296 167 -353 92 -402 -90
-59 -224 -20 -811 241 -1093 486 -1422 567 -1902 470 -446 -91 -508 -143 -616
-510 -50 -173 -119 -258 -307 -381 -80 -53 -208 -145 -285 -205 -77 -60 -160
-116 -185 -126 -30 -11 -45 -34 -45 -67 l0 -49 94 28 c51 16 127 53 167 84
584 441 603 461 698 752 77 235 193 311 599 394 475 96 813 5 1999 -539 782
-358 911 -305 620 254 -184 354 -179 425 29 425 165 0 374 -83 835 -332 517
-280 941 -492 955 -478 16 15 18 14 -296 170 -159 80 -434 227 -610 326 -622
352 -953 467 -1110 388z"/>
<path d="M4175 4738 c-66 -38 -41 -139 105 -425 287 -562 122 -600 -790 -182
-1036 474 -1418 579 -1823 498 -440 -88 -556 -164 -653 -429 -107 -294 -653
-776 -919 -812 -99 -14 -146 -88 -56 -88 187 0 376 89 601 283 293 252 372
342 467 531 130 257 221 327 521 396 523 122 802 54 1932 -465 941 -433 1133
-388 850 195 -177 364 -164 444 62 402 148 -29 170 -38 862 -387 354 -178 650
-318 657 -310 7 7 -156 99 -364 204 -207 105 -511 262 -676 349 -417 222 -672
301 -776 240z"/>
<path d="M4398 4528 c-31 -38 -17 -80 130 -398 227 -493 -22 -563 -775 -217
-1060 486 -1319 576 -1653 577 -433 0 -752 -120 -873 -330 -152 -265 -208
-335 -427 -534 -318 -290 -464 -365 -715 -366 -70 0 -85 -7 -85 -39 0 -84 461
3 635 119 165 111 504 461 639 660 141 207 246 277 513 343 468 115 810 39
1713 -377 1092 -504 1392 -474 1150 114 -197 477 -103 474 938 -29 332 -161
459 -211 410 -163 -28 28 -1227 609 -1315 638 -136 43 -250 44 -285 2z"/>
<path d="M4715 4318 c-52 -30 -43 -98 36 -304 230 -593 -121 -616 -1278 -85
-795 364 -1127 439 -1552 351 -276 -57 -427 -139 -551 -300 -55 -71 -217 -250
-360 -397 -342 -351 -441 -401 -848 -435 -131 -11 -162 -20 -162 -47 0 -29 22
-31 205 -16 487 39 551 74 1031 566 411 420 426 430 752 502 437 96 777 23
1569 -337 571 -259 883 -348 1163 -333 244 14 286 102 190 403 -123 383 -2
388 770 35 273 -125 367 -157 309 -103 -31 28 -703 340 -909 422 -217 87 -315
108 -365 78z"/>
<path d="M2090 4068 c-379 -68 -432 -102 -890 -568 -369 -376 -441 -410 -960
-466 l-230 -24 -7 -58 c-5 -45 1 -55 24 -46 76 29 201 54 423 84 438 60 483
83 860 450 392 381 473 425 876 481 459 65 642 30 1344 -251 622 -249 833
-309 1152 -324 469 -23 530 15 509 316 -17 231 -5 258 110 258 81 0 328 -81
548 -180 156 -70 151 -68 151 -32 0 32 -515 265 -733 331 -278 85 -315 49
-248 -236 71 -298 31 -362 -235 -379 -303 -19 -615 65 -1224 331 -782 342
-1021 393 -1470 313z"/>
<path d="M2310 3827 c-526 -64 -656 -131 -1029 -532 -202 -216 -334 -279 -724
-344 -532 -88 -557 -103 -556 -317 l1 -144 32 60 c112 209 220 268 622 340
446 80 550 131 767 375 249 280 445 369 885 400 474 33 574 15 1322 -244 521
-181 981 -256 1433 -236 357 17 437 65 472 284 27 169 77 179 422 79 40 -12
46 -7 40 34 -6 39 -39 60 -197 122 -423 166 -512 149 -490 -90 26 -279 -47
-333 -451 -334 -436 0 -731 71 -1419 344 -512 203 -761 247 -1130 203z"/>
<path d="M2230 3558 c-344 -20 -527 -110 -766 -376 -175 -196 -314 -261 -730
-341 -436 -84 -501 -126 -652 -415 -78 -148 -113 -326 -66 -326 32 0 121 112
174 220 150 301 277 388 670 461 422 78 490 110 761 370 366 348 873 378 1732
101 773 -250 2129 -330 2545 -151 l102 44 0 147 0 146 -70 13 c-104 20 -168
-4 -206 -76 -122 -232 -244 -266 -903 -249 -519 13 -777 60 -1363 251 -552
180 -741 208 -1228 181z"/>
<path d="M2055 3310 c-168 -43 -225 -78 -409 -254 -204 -196 -301 -242 -671
-318 -446 -92 -549 -161 -713 -476 -86 -166 -122 -208 -207 -240 -75 -29 -84
-153 -10 -132 25 7 63 18 85 24 89 25 155 96 233 253 155 312 289 404 725 496
362 77 480 132 688 323 298 274 668 307 1314 117 961 -282 866 -269 1960 -273
484 -1 896 -10 915 -18 30 -14 35 -5 35 72 l0 89 -135 -16 c-616 -75 -1906 9
-2375 155 -694 215 -1130 276 -1435 198z"/>
<path d="M2204 3119 c-145 -26 -241 -79 -388 -215 -201 -185 -267 -215 -631
-292 -464 -98 -605 -189 -743 -481 -93 -194 -162 -260 -324 -305 -159 -44
-186 -156 -33 -134 227 33 361 139 444 349 101 258 284 379 721 478 410 93
494 129 670 291 203 187 243 200 580 198 312 -3 356 -12 1080 -218 476 -136
620 -151 1523 -157 444 -4 827 -13 852 -22 40 -14 45 -9 45 44 0 90 -35 93
-980 95 -1008 3 -1033 6 -1740 221 -499 151 -814 195 -1076 148z"/>
<path d="M2349 2940 c-131 -19 -198 -56 -350 -188 -170 -148 -289 -201 -633
-282 -528 -125 -671 -215 -775 -488 -89 -232 -269 -362 -502 -362 -82 0 -89
-4 -89 -50 0 -48 5 -50 125 -50 294 0 431 92 550 369 126 291 204 347 627 451
539 132 628 168 818 331 261 225 500 228 1300 19 751 -197 963 -227 1805 -251
355 -10 674 -24 710 -31 62 -12 65 -9 65 47 0 86 -5 87 -930 104 -958 18 -960
18 -1750 240 -427 120 -775 171 -971 141z"/>
<path d="M2410 2748 c-44 -15 -143 -79 -220 -141 -192 -154 -291 -196 -737
-306 -551 -137 -612 -176 -707 -449 -101 -291 -272 -403 -597 -389 -128 6
-149 2 -149 -26 0 -27 32 -35 179 -47 395 -31 560 67 661 394 78 253 159 307
617 408 513 112 610 150 835 320 296 225 360 226 1268 18 685 -157 1064 -219
1655 -269 579 -49 730 -64 758 -75 24 -9 29 3 23 56 -8 87 -18 89 -666 117
-844 36 -1025 61 -1772 242 -760 185 -968 211 -1148 147z"/>
<path d="M2630 2603 c-77 -21 -183 -76 -201 -105 -76 -122 -485 -286 -919
-368 -443 -84 -526 -134 -594 -359 -119 -398 -255 -474 -761 -423 -200 20
-208 -15 -10 -50 541 -94 754 -4 852 360 72 271 122 304 578 385 518 91 674
146 905 317 256 190 372 201 910 89 791 -164 929 -190 1510 -285 336 -55 720
-117 855 -138 l245 -37 0 53 c0 68 1 68 -483 119 -798 84 -1171 145 -1967 322
-534 118 -797 152 -920 120z"/>
<path d="M2778 2434 c-40 -15 -145 -79 -234 -141 -243 -171 -448 -240 -933
-312 -417 -62 -495 -116 -550 -384 -69 -341 -310 -441 -831 -347 -189 34 -246
37 -219 12 10 -10 136 -38 278 -62 590 -99 805 -20 872 319 58 297 111 333
589 391 458 56 648 117 903 291 306 208 369 211 1187 50 314 -62 872 -171
1240 -242 369 -72 726 -142 795 -157 124 -26 125 -26 125 19 0 52 2 52 -350
108 -437 70 -1760 316 -2110 392 -375 82 -651 105 -762 63z"/>
<path d="M2929 2262 c-45 -20 -127 -70 -183 -110 -242 -173 -494 -252 -966
-302 -412 -43 -495 -95 -537 -329 -55 -317 -235 -447 -570 -412 -122 13 -541
83 -628 104 -25 6 -45 3 -45 -7 0 -20 454 -114 710 -147 382 -49 578 61 632
354 53 292 112 328 598 367 425 35 649 101 878 257 237 162 270 173 502 170
227 -2 1183 -175 1970 -357 730 -167 729 -167 705 -105 -13 33 -639 167 -2080
444 -643 124 -842 139 -986 73z"/>
<path d="M3195 2132 c-52 -14 -142 -56 -200 -93 -326 -206 -509 -272 -844
-300 -637 -53 -676 -73 -730 -359 -71 -379 -323 -448 -1070 -292 -295 62 -382
73 -349 45 21 -18 845 -174 979 -185 350 -30 509 94 569 441 32 188 149 236
661 267 362 23 551 79 835 251 385 232 646 207 2539 -243 372 -88 415 -95 415
-63 0 28 -44 45 -235 89 -129 30 -383 88 -565 131 -1070 250 -1807 364 -2005
311z"/>
<path d="M3397 1971 c-51 -14 -175 -73 -274 -131 -304 -175 -472 -222 -873
-244 -519 -28 -582 -58 -628 -296 -87 -438 -302 -484 -1281 -270 -179 40 -331
67 -336 61 -33 -32 1052 -251 1243 -251 273 0 451 134 482 363 32 232 138 297
490 297 451 1 582 32 1030 247 l300 143 250 -1 c325 -2 645 -60 1460 -266 347
-87 655 -164 685 -171 45 -11 55 -6 55 26 0 31 -27 44 -155 72 -85 18 -348 82
-585 140 -1033 257 -1625 346 -1863 281z"/>
<path d="M3726 1818 c-89 -11 -191 -48 -370 -136 -384 -188 -533 -224 -976
-239 -498 -17 -505 -21 -582 -343 -80 -329 -367 -368 -1255 -171 -279 62 -517
109 -530 104 -13 -4 0 -13 27 -20 1559 -371 1768 -362 1898 78 71 242 93 252
612 270 462 16 633 56 1040 245 447 208 674 179 2377 -299 28 -8 35 -1 30 32
-7 46 18 38 -1117 331 -459 118 -921 177 -1154 148z"/>
<path d="M4016 1641 c-52 -10 -183 -58 -293 -109 -356 -163 -684 -234 -1144
-249 -451 -15 -474 -23 -529 -177 -94 -265 -155 -334 -340 -386 -142 -40 -451
-14 -800 68 -661 153 -741 171 -829 184 -159 23 -72 -14 122 -52 103 -20 372
-82 597 -137 936 -229 1185 -199 1354 159 105 223 111 225 586 241 533 17 913
93 1214 241 385 190 756 148 1795 -203 132 -45 242 -81 245 -81 3 0 6 21 6 47
0 44 -506 210 -1137 373 -273 71 -684 110 -847 81z"/>
<path d="M4290 1432 c-44 -15 -154 -64 -244 -110 -225 -117 -688 -199 -1226
-220 -442 -16 -471 -26 -558 -197 -186 -367 -451 -396 -1442 -155 -658 159
-820 190 -820 155 0 -8 99 -31 220 -51 121 -19 447 -93 725 -163 917 -232
1213 -214 1448 89 138 178 156 184 577 202 628 26 1094 110 1305 235 332 196
859 129 1561 -198 l166 -78 -6 63 c-18 184 -1392 528 -1706 428z"/>
<path d="M4539 1211 c-39 -14 -120 -54 -180 -87 -211 -118 -642 -196 -1243
-225 -435 -21 -477 -33 -624 -185 -277 -287 -578 -300 -1502 -63 -541 138
-787 189 -915 189 -141 0 -76 -34 90 -47 214 -17 443 -66 931 -201 829 -227
1185 -227 1518 2 203 138 236 148 615 168 542 30 1005 119 1294 249 367 166
743 123 1282 -147 l195 -98 0 53 c0 61 -14 69 -360 215 -426 180 -890 255
-1101 177z"/>
<path d="M4720 974 c-71 -27 -184 -68 -250 -92 -271 -100 -702 -181 -1089
-203 -401 -24 -463 -39 -686 -159 -375 -202 -753 -192 -1592 43 -634 177
-1103 248 -1103 165 0 -35 19 -38 265 -40 285 -2 249 5 1145 -238 694 -188
995 -186 1535 9 151 54 217 66 480 82 468 29 637 66 1235 265 430 143 745 113
1199 -116 131 -65 141 -68 141 -30 0 30 -44 61 -181 131 -438 219 -824 284
-1099 183z"/>
<path d="M4990 808 c-22 -6 -229 -70 -460 -141 -528 -165 -611 -182 -1005
-207 -242 -15 -364 -33 -498 -72 -97 -29 -222 -65 -277 -81 -290 -82 -723 -50
-1260 93 -842 225 -921 243 -1110 253 -269 14 -368 -17 -376 -119 l-6 -74 71
48 c105 71 250 99 449 86 168 -11 328 -48 922 -214 693 -194 1156 -227 1613
-115 147 36 325 62 520 75 413 28 535 51 867 163 753 255 937 264 1410 74 223
-90 219 -34 -5 68 -304 139 -674 209 -855 163z"/>
<path d="M5010 592 c-99 -26 -310 -94 -470 -151 -322 -113 -519 -152 -860
-171 -126 -6 -360 -34 -520 -60 -670 -111 -916 -87 -1900 190 -733 206 -952
206 -1186 1 -62 -54 -74 -78 -74 -143 0 -100 6 -99 157 33 312 272 408 271
1423 -12 703 -195 1085 -234 1620 -162 171 23 423 47 560 54 365 18 564 56
884 172 646 232 898 252 1282 99 71 -28 74 -28 74 6 0 15 -51 46 -115 70 -354
130 -592 150 -875 74z"/>
<path d="M5228 451 c-56 -16 -253 -83 -437 -150 -378 -137 -547 -172 -921
-191 -143 -7 -372 -26 -510 -42 -678 -76 -998 -36 -2048 254 -612 170 -802
160 -1034 -54 -63 -58 -151 -129 -196 -159 -113 -75 -108 -109 17 -109 96 0
105 5 258 148 285 267 407 283 973 132 1130 -301 1045 -290 1980 -273 1061 19
1184 35 1638 212 407 160 446 170 642 169 101 0 230 -14 295 -32 95 -27 115
-27 115 -5 0 86 -564 159 -772 100z"/>
<path d="M5420 304 c-71 -20 -239 -83 -372 -139 -132 -56 -303 -116 -380 -132
l-138 -30 240 -1 c233 -1 245 1 400 70 392 174 580 213 775 162 42 -11 55 -8
55 15 0 74 -381 111 -580 55z"/>
<path d="M684 281 c-48 -22 -140 -94 -205 -161 l-119 -120 113 0 c107 0 117 4
182 81 175 204 375 210 1055 30 231 -61 452 -110 490 -110 44 1 -27 26 -190
68 -143 37 -399 104 -570 150 -391 104 -626 124 -756 62z"/>
<path d="M982 180 c-74 -18 -224 -116 -237 -155 -16 -48 163 -29 276 29 136
71 300 70 619 -2 372 -84 380 -55 10 38 -362 90 -558 117 -668 90z"/>
<path d="M5699 181 c-50 -9 -171 -51 -269 -94 l-178 -77 147 -6 c117 -5 169 3
250 38 55 24 157 48 226 53 120 10 199 85 90 85 -19 0 -66 4 -105 9 -38 4
-111 1 -161 -8z"/>
<path d="M1215 41 c-150 -30 -96 -41 187 -39 198 2 263 7 208 18 -142 28 -318
37 -395 21z"/>
<path d="M5840 20 c-39 -13 -28 -16 55 -18 58 -1 105 7 105 18 0 23 -88 23
-160 0z"/>
</g>
</svg>
