<?xml version="1.0" encoding="utf-8"?>
<svg x="0px" y="0px" viewBox="0 0 1200 1200">
<g>
	<path fill="currentColor" d="M390.038,711.322c0.677,10.217,0.922,20.471,0.556,30.705c-0.07,1.964-0.163,3.927-0.28,5.888
		c-0.708,11.898-3.331,23.53-4.58,35.393c-0.032,0.306,3.298,1.227,6.598,1.708c5.277,0.771,10.59,1.361,15.909,1.751
		c4.709,0.345,8.293-4.758,10.791-8.064c3.29-4.354,5.879-9.206,8.048-14.202c11.888-27.39,10.672-58.999-1.88-85.911
		c-1.663-3.565-4.547-6.266-7.579-8.771c-9.858-8.146-24.413-17.716-37.437-21.492c1.736,7.768,3.386,15.557,4.929,23.365
		C387.692,684.753,389.155,698.008,390.038,711.322z"/>
	<path fill="currentColor" d="M572.103,548.332c1.553,18.964,0.931,37.948-1.854,56.829c-0.568,3.847-2.207,13.565-2.475,17.447
		c-0.063,0.915,3.987-0.03,4.671-0.208c7.993-2.076,14.193-4.075,20.863-7.631c6.955-3.708,15.62-9.274,20.296-15.581
		c2.246-3.03,3.543-6.623,4.539-10.229c1.641-5.944,2.494-12.091,2.566-18.249c0.105-8.922-1.428-17.865-4.574-26.241
		c-2.488-6.624-5.951-14.182-11.468-18.882c-5.74-4.891-12.204-8.466-19.425-10.9c-6.128-2.066-12.568-3.35-19.042-3.761
		c-0.36-0.023,0.976,4.799,1.102,5.642C568.894,527.162,571.232,537.69,572.103,548.332z"/>
	<path fill="currentColor" d="M774.536,688.657c-0.382-11.295-2.519-22.266-6.52-32.813c-1.54-4.058-4.946-10.163-7.096-13.95
		c-1.274-2.245-33.917,0.517-49.432,9.048c-3.009,1.655,0.141,2.942,2.315,15.053c1.952,11.01,3.69,22.16,4.183,33.306
		c0.694,15.705,0.538,31.492-1.445,47.104c-0.775,6.094-1.852,12.149-3.198,18.143c-1.208,5.382-1.344,10.251-2.188,15.709
		c-0.266,1.742,38.69-20.689,53.456-35.081c1.99-1.939,3.453-4.802,4.26-7.506c4.052-13.588,6.965-27.384,6.012-41.713
		C774.766,693.523,774.619,691.091,774.536,688.657z"/>
	<path fill="currentColor" d="M527.186,608.583c8.922,5.928,18.794,10.531,29.17,13.922c2.18,0.712,4.708,1.415,4.429,0.17
		c-1.163-5.192-3.776-14.189-5.031-19.36c-5.085-20.939-7.29-42.088-4.454-63.563c0.684-5.18,1.454-10.351,2.419-15.487
		c0.49-2.609,1.031-5.209,1.635-7.794c0.098-0.417,1.393-5.539,1.44-5.542c-27.161,2.094-42.225,15.941-51.171,31.757
		c-3.903,6.899-5.809,14.849-5.709,22.77c0.091,7.204,1.842,14.384,5.262,20.73C510.23,595.563,518.417,602.758,527.186,608.583z"/>
	<path fill="currentColor" d="M1119.055,313.435c0.099-0.967,0.049-2.013,0.412-2.879c2.148-5.12,1.59-10.549,1.943-15.872
		c0.29-4.378,0.535-8.758,0.801-13.137c2.581-5.501,1.945-11.461,2.459-17.257c0.172-1.943-0.148-4.078,0.557-5.796
		c2.302-5.608,1.831-11.498,2.297-17.297c0.156-1.944-0.146-4.053,0.511-5.807c2.464-6.58,1.836-13.462,2.411-20.226
		c0.206-2.421,0.24-4.907,0.849-7.234c2.58-9.844,4.639-19.83,7.812-29.512c1.661-5.068,3.568-10.056,5.352-15.085
		c0.394-1.11-0.704-3.134-1.926-3.456c-1.812-0.478-3.947,0.042-5.406-1.9c1.937-1.352,3.881-2.7,5.814-4.063
		c2.378-1.678,4.744-3.37,7.06-5.016c-0.137-3.17-0.822-4.009-2.884-3.688c-0.477,0.074-1.036-0.092-1.443,0.097
		c-5.357,2.486-11.368,2.305-16.899,4.3c-4.983,1.797-10.305,2.75-15.544,3.714c-8.955,1.647-20.433,4.945-29.193,8.742
		c-16.958,7.351-33.763,15.02-50.299,23.293c-16.12,8.065-31.82,16.828-46.95,26.627c-11.032,7.145-21.768,14.721-32.203,22.691
		c-14.32,10.937-28.335,22.256-41.001,35.153c-6.491,6.61-13.235,12.973-19.924,19.387c-0.563,0.54-1.566,0.643-2.383,0.888
		c-1.096,0.329-1.059-2.195,0.086-3.876c3.014-4.426,6.067-8.827,9.026-13.29c0.505-0.762,0.698-1.764,0.894-2.685
		c0.084-0.396-0.097-0.93-0.326-1.296c-0.546-0.868-1.497-1.285-2.526-0.872c-4.631,1.858-7.69,5.854-11.442,8.856
		c-10.675,8.543-20.473,18.171-29.184,28.655c-7.438,8.951-14.307,18.43-21.078,27.954c-8.76,12.32-15.773,25.722-24.398,38.105
		c-0.826,1.186-1.302,2.611-1.994,3.895c-6.476,12.002-11.727,24.545-16.669,37.239c-3.522,9.048-6.657,18.248-10.308,27.232
		c-3.479,8.562-6.467,17.298-9.505,25.994c-3.2,9.159-7.69,17.844-9.895,27.378c-0.594,2.57-1.74,5.224-4.166,6.955
		c-0.977,0.697,0.443-12.023,0.539-12.472c1.128-5.281,2.317-10.549,3.577-15.801c2.474-10.306,5.22-20.549,8.327-30.683
		c6.165-20.112,13.726-39.877,23.57-58.493c4.077-7.71,7.849-15.582,11.787-23.44c-0.913-1.805-1.544-3.732-2.712-5.241
		c-4.467-5.773-8.891-11.602-13.726-17.062c-10.731-12.12-23.928-21.37-36.851-30.913c-0.371-0.274-0.907-0.314-1.34-0.519
		c-1.973-0.933-5.204,0.974-5.659,3.073c-0.708,3.272,0.953,6.822-1.734,10.668c-2.509-3.594-5.213-6.755-8.401-9.395
		c-4.5-3.726-8.926-7.579-13.693-10.938c-5.248-3.698-9.873-7.816-13.33-13.31c-1.254-1.993-3.379-3.465-5.201-5.067
		c-2.08-1.829-6.462-0.269-7.032,2.567c-0.377,1.876-0.297,3.84-0.532,5.751c-0.169,1.376-0.522,2.73-0.806,4.163
		c-11.791-4.977-17.464-8.203-34.412-19.551c-1.227,0-2.668,0-3.931,0c-3.327,1.843-1.052,5.76-3.558,8.122
		c-2.866-1.544-5.818-3.172-8.805-4.734c-3.019-1.577-6.063-3.105-9.112-4.625c-3.485-1.738-6.952-3.518-10.492-5.137
		c-3.03-1.387-4.921-4.871-8.749-4.744c-0.698,0.611-1.886,1.144-1.972,1.818c-0.37,2.879-0.37,5.803-0.6,8.703
		c-0.092,1.162-0.725,1.749-1.552,1.79c-2.913-1.878-4.977-4.543-7.053-7.279c-2.643-3.483-5.567-6.76-8.488-10.02
		c-0.569-0.635-1.65-0.924-2.55-1.123c-1.07-0.235-1.946,0.264-2.45,1.161c-1.539,2.741-0.494,5.707-0.754,8.558
		c-0.121,1.329-0.758,2.612-1.177,3.965c-7.312-3.47-8.322-12.267-14.749-16.121c-3.002,1.648-3.547,1.987-3.969,3.63
		c-1.092,4.248-2.245,8.444-5.272,11.884c-0.401-0.724-1.09-1.415-1.132-2.143c-0.167-2.914-0.028-5.847-0.254-8.753
		c-0.052-0.672-1.101-1.266-1.86-2.077c-1.113,0.856-2.348,1.616-3.353,2.608c-5.554,5.478-11.038,11.028-16.584,16.514
		c-1.034,1.023-2.251,1.86-3.375,2.795c-1.145,0.952-3.792,0.742-3.795-0.359c-0.003-0.92-0.193-2.082,0.271-2.719
		c2.294-3.143,4.849-6.095,7.133-9.244c0.453-0.624,0.352-1.886,0.097-2.729c-0.325-1.069-1.392-1.521-2.424-1.098
		c-3.127,1.28-6.283,2.524-9.291,4.052c-18.135,9.214-35.662,19.552-53.622,29.092c-0.76-0.682-1.089-1.704-0.381-2.573
		c2.455-3.011,5.054-5.905,7.526-8.76c0-1.106,0.212-2.113-0.054-2.971c-0.324-1.042-2.36-1.382-3.909-0.862
		c-10.184,3.42-19.799,8.051-28.973,13.621c-6.227,3.781-12.449,7.572-18.693,11.327c-1.022,0.615-1.921,0.305-2.552-0.685
		c0.384-0.809,0.67-1.689,1.179-2.411c0.84-1.19,1.873-2.243,2.735-3.419c0.959-1.308,0.862-3.421-0.199-3.86
		c-0.833-0.345-1.995-0.795-2.674-0.478c-10.6,4.958-20.351,11.397-30.253,17.569c-2.888,1.8-5.683,3.754-8.457,5.728
		c-7.528,5.357-15.017,10.769-22.543,16.127c-0.279,0.198-0.885,0.231-1.166,0.059c-0.37-0.226-0.833-0.766-0.789-1.11
		c0.122-0.941,0.422-1.877,0.778-2.765c0.361-0.901,1.073-1.701,1.26-2.621c0.177-0.87-0.026-1.863-0.248-2.756
		c-0.229-0.921-2.847-1.697-3.878-1.363c-4.213,1.367-8.014,3.47-11.442,6.27c-4.148,3.388-8.341,6.721-12.452,10.153
		c-1.493,1.246-2.942,2.595-4.176,4.091c-4.336,5.258-8.598,10.578-12.808,15.937c-0.562,0.715-0.661,1.793-1.075,2.993
		c0.352,1.135,0.599,2.592,1.228,3.86c21.934,44.247,31.673,98.312,27.716,147.46c-0.034,0.417-0.535,0.797-0.818,1.194
		c-0.557-0.498-1.505-0.925-1.61-1.506c-5.515-30.325-10.078-61.343-17.656-91.281c-7.017-27.722-16.883-54.727-30.288-80.016
		c-0.883-1.667-2.426-2.984-3.487-4.254c-3.999-0.078-4.024-0.077-5.986,3.275c-0.021,4.193,2.821,8.345,0.148,13.023
		c-1.423-2.627-3.153-4.92-3.971-7.501c-2.367-7.472-6.353-14.203-9.318-21.39c-2.971-7.201-6.765-13.978-10.432-20.83
		c-6.456-12.061-14.159-23.254-22.789-33.848c-2.762-3.39-5.167-7.068-7.849-10.527c-2.979-3.842-6.388-7.307-9.335-11.219
		c-4.088-5.427-8.986-10.251-13.625-15.253c-2.251-2.427-4.561-1.644-6.316,2.133c-0.202,0.435-0.494,0.829-1.149,1.909
		c-1.441-1.17-2.319-1.674-2.914-2.407c-1.532-1.887-3-3.834-4.386-5.831c-8.89-12.803-17.798-25.574-29.038-36.523
		c-3.83-3.731-7.539-7.595-10.542-12.113c-1.599-2.406-3.847-4.396-5.891-6.487c-4.771-4.885-9.552-9.762-14.409-14.561
		c-6.235-6.16-12.505-12.236-19.496-17.626c-5.767-4.445-11.406-9.112-17.03-13.766c-17.5-14.48-30.548-21.984-52.895-30.051
		c-1.242-0.448-2.191,0.236-3.032,2.396c-0.172,0.443-0.181,0.949-0.322,1.753c0.885,1.958,2.429,4.083,2.78,6.389
		c1.093,7.191,3.577,14.133,3.455,21.56c-0.071,4.346,0.212,8.835,1.275,13.02c0.977,3.843,1.506,7.646,1.552,11.529
		c0.178,15.118,0.27,30.236,0.333,45.355c0.04,9.755-0.088,19.51-0.016,29.264c0.032,4.367,0.196,8.68,1.521,12.997
		c0.975,3.175,0.767,6.739,0.897,10.136c0.054,1.396-0.388,2.811-0.6,4.193c-1.975,0.09-1.981-1.568-2.729-2.466
		c-0.729-0.874-1.655-1.239-2.612-0.697c-0.766,0.434-1.828,1.101-1.941,1.797c-0.385,2.388-0.416,4.834-0.571,7.258
		c-0.65,10.168,0.756,20.501-2.429,30.467c0.054,6.331,0.109,12.661,0.163,18.992c2.328,5.57,1.703,11.51,2.164,17.313
		c0.193,2.43-0.157,5.019,0.563,7.272c2.729,8.534,2.118,17.345,2.615,26.065c0.222,3.885,0.11,7.784,1.639,11.515
		c0.532,1.299,0.474,2.866,0.562,4.318c0.501,8.242,0.72,16.447,2.84,24.582c1.452,5.569,0.913,11.582,3.045,17.176
		c0.819,2.149,0.943,4.797-0.737,7.159c-1.813-1.495-3.587-2.998-5.407-4.441c-0.811-0.642-1.852-0.733-2.726-0.094
		c-0.724,0.529-1.235,1.351-2.053,2.287c0,14.057-0.007,28.114,0.02,42.171c0.005,1.94-0.152,4.048,0.521,5.786
		c1.639,4.232,1.511,8.604,1.753,12.972c0.456,8.237-0.183,16.583,2.594,24.594c0.464,1.338,0.419,2.903,0.381,4.357
		c-0.221,8.382,3.449,16.16,3.739,24.457c3.613,10.555,6.292,21.441,11.052,31.588c3.927,8.369,7.846,16.745,11.993,25.006
		c8.341,16.613,19.243,31.533,30.825,45.986c2.737,3.416,5.415,6.881,8.227,10.233c3.125,3.725,6.372,7.346,9.54,10.982
		c-1.596,1.862-2.248,2.144-3.384,1.623c-5.725-2.625-11.077-6.053-16.719-8.038c-2.504,0.568-3.693,1.949-4.272,4.046
		c3.502,8.081,8.391,15.305,14.911,21.325c3.57,3.296,7.713,5.989,11.154,9.401c7.322,7.262,15.689,13.077,24.34,18.539
		c0.086,1.843-1.15,3.732,2.317,7.673c0.322,0.285,2.909,2.497,5.417,4.797c8.625,7.911,16.978,16.089,24.366,25.197
		c0.239,0.295,0.408,0.938,0.25,1.209c-0.562,0.961-1.464,1.221-2.513,1.029c-4.367-0.8-8.059-3.345-12.207-4.681
		c-1.822-0.587-3.791-0.881-5.708-0.958c-1.409-0.057-2.909,0.314-3.856,1.638c-0.953,1.332-0.913,4.133,0.054,5.498
		c0.562,0.794,1.03,1.67,1.671,2.393c8.071,9.113,15.346,18.933,24.259,27.301c0.683,0.642,1.063,1.607,1.583,2.421
		c-0.314,0.923-1.048,1.591-2.016,1.326c-3.805-1.042-6.976-3.32-10.227-5.451c-2.842-1.862-5.783-3.572-8.49-5.232
		c-0.783,0.29-1.324,0.344-1.654,0.637c-2.144,1.9-2.419,3.448-0.797,4.677c9.733,7.371,18.724,15.547,27.097,24.439
		c8.357,8.876,16.903,17.574,25.325,26.389c2.01,2.104,3.928,4.306,5.751,6.573c0.732,0.91,0.37,1.895-0.678,2.616
		c-10.824-4.311-20.423-10.925-30.196-17.237c-1.214-0.784-2.483-1.548-3.828-2.044c-0.85-0.313-1.897-0.198-2.842-0.119
		c-1.355,0.114-2.371,2.155-1.964,3.271c0.879,2.406,2.646,4.104,4.52,5.574c8.421,6.607,16.975,13.006,26.195,18.526
		c8.756,5.242,17.205,11,25.74,16.605c1.011,0.664,1.022,1.681,0.404,2.277c-0.341,0.329-0.788,0.798-1.175,0.786
		c-1.453-0.041-3.062,0.104-4.323-0.464c-5.817-2.617-12.269-2.91-18.187-5.152c-1.256-0.476-3.037-0.276-3.977,1.05
		c-0.489,0.689-0.396,1.792-0.627,3.043c2.793,3.807,6.599,6.831,10.604,9.601c3.198,2.212,6.56,4.186,9.799,6.34
		c15.393,10.234,30.788,20.466,46.132,30.774c2.4,1.612,4.885,3.266,6.296,6.379c-1.391,0.331-2.881,1.207-3.993,0.863
		c-5.1-1.576-10.307-2.71-15.457-4.071c-5.619-1.485-11.212-3.086-16.879-4.358c-1.182-0.265-2.637,0.686-3.853,1.043
		c0,0.815-0.132,1.352,0.028,1.78c0.324,0.871,0.588,1.994,1.262,2.465c2.382,1.667,4.827,3.305,7.426,4.595
		c16.11,7.998,31.822,16.82,48.57,23.506c1.781,0.711,3.399,1.831,5.093,2.761c-0.162,0.306-0.261,0.792-0.467,0.843
		c-5.318,1.294-10.568,0.891-15.809-0.561c-1.855-0.514-3.804-0.73-5.724-0.949c-0.954-0.109-2.019-0.125-2.891,0.2
		c-0.779,0.29-1.538,0.997-1.989,1.718c-0.609,0.973-0.304,2.012,0.656,2.525c1.706,0.912,3.406,1.99,5.246,2.469
		c5.625,1.466,11.264,3,16.993,3.916c8.137,1.301,16.096,3.542,24.461,3.776c4.751,0.133,9.46,1.909,14.177,2.991
		c0.44,0.101,0.804,0.537,1.349,0.919c-8.28,2.754-17.322,3.055-24.505,8.5c-0.188,0.979-0.365,1.897-0.541,2.816
		c1.918,2.467,4.899,2.946,7.992,4.221c3.449,0.124,7.352,0.155,11.237,0.437c3.817,0.277,7.815-0.894,12.487,1.884
		c-5.552,0.911-9.556,3.584-14.26,4.56c-1.34,0.278-2.532,1.331-3.758,2.084c-1.313,0.805-1.439,2.657-0.161,3.546
		c1.166,0.811,2.429,1.883,3.735,2.018c4.845,0.501,9.736,0.547,14.59,0.986c5.308,0.479,10.369,2.619,15.827,2.362
		c1.143-0.054,2.332,0.87,3.757,1.448c-3.349,2.485-8.222,1.765-9.72,6.302c1.053,2.396,2.905,3.761,5.571,3.969
		c3.403,0.266,6.988-0.084,10.173,0.886c6.688,2.038,13.475,1.698,20.266,1.945c2.892,0.105,5.851-0.332,9.06,1.049
		c7.622,8.989,16.309,17.421,26.312,24.501c3.532,2.5,6.967,5.34,9.462,9.06c0.127,2.42,0.254,4.832,0.388,7.375
		c3.655,5.176,8.068,9.749,13.343,13.312c11.702,7.904,23.877,14.969,36.9,19.197c3.001,3.213,5.571,6.132,8.335,8.854
		c1.412,1.39,3.346,1.916,5.372,1.894c1.424-0.015,2.848-0.003,3.963-0.003c1.122,0.749,1.895,1.362,2.752,1.818
		c2.004,1.065,3.997,0.909,5.302-0.442c4.066-4.207,8.041-8.504,12.168-12.651c2.741-2.754,5.669-5.32,8.552-7.929
		c0.219-0.199,0.878-0.227,1.089-0.047c0.328,0.278,0.708,0.878,0.613,1.212c-1.738,6.091-3.321,12.207-2.236,18.607
		c0.115,0.677,1.269,1.252,2.038,1.712c0.361,0.216,1.109,0.245,1.416,0.011c1.914-1.457,3.85-2.91,5.601-4.553
		c7.805-7.323,15.225-15.097,24.507-20.654c0.852,0.645,1.295,1.5,1.015,2.485c-0.658,2.325-1.615,4.579-2.098,6.935
		c-0.539,2.634,0.541,4.774,2.986,6.011c0.833,0.422,1.84,0.501,2.707,0.721c9.743-2.271,18.282-6.617,25.213-13.89
		c0.668-0.701,1.446-1.32,2.244-1.873c10.619-7.36,18.196-17.447,25.238-28.029c1.059-1.592,2.324-3.047,3.177-4.155
		c4.674-1.926,9.391-0.879,13.324-3.172c4.867-0.25,9.735-0.474,14.6-0.761c3.406-0.2,6.982,0.085,10.166-0.884
		c3.764-1.144,7.675-1.468,11.342-2.594c4.199-1.29,8.535-1.947,12.682-3.255c22.276-7.03,43.903-15.692,64.663-26.439
		c1.252-0.648,2.386-1.714,3.255-2.835c0.494-0.638,0.663-1.898,0.383-2.661c-0.269-0.735-1.246-1.572-2.013-1.686
		c-1.394-0.207-2.959-0.205-4.285,0.224c-7.379,2.384-14.694,4.964-22.062,7.38c-1.785,0.585-3.676,0.729-5.317-1.145
		c4.424-2.141,8.619-4.744,13.175-6.257c9.303-3.089,17.753-7.885,26.511-12.094c6.182-2.971,11.696-6.976,17.501-10.526
		c1.615-0.988,2.845-2.618,4.221-3.985c1.102-1.096,0.921-2.109-0.503-3.445c-0.64-0.601-1.23-1.256-1.843-1.886
		c0.489-0.844,0.795-1.903,1.497-2.482c1.868-1.541,3.816-3.027,5.892-4.266c8.384-5.005,15.974-11.093,23.591-17.142
		c1.567-1.245,2.542-2.883,2.289-5.073c-1.326-2.977-5.558-0.082-6.906-3.397c1.063-0.944,2.043-2.066,3.245-2.843
		c13.116-8.48,25.626-17.696,36.337-29.18c2.324-2.492,4.99-4.661,7.409-7.068c8.641-8.602,17.253-17.232,25.85-25.877
		c1.373-1.38,2.761-2.79,3.869-4.377c1.335-1.912,2.72-3.904,2.39-6.806c-1.335-0.185-2.865-0.863-4.063-0.486
		c-6.935,2.185-13.536,5.265-20.304,7.908c-0.996,0.389-1.813-0.215-2.177-1.112c0.644-0.723,1.164-1.644,1.952-2.137
		c9.929-6.212,18.76-13.894,28.052-20.953c3.488-2.65,6.74-5.679,9.079-9.445c1.05-1.691,1.242-3.683-0.72-5.617
		c-3.755,1.808-7.724,3.521-11.501,5.584c-6.01,3.282-12.475,5.345-18.935,7.424c-0.706,0.227-1.727-0.526-2.984-0.954
		c1.46-1.474,2.656-3.001,4.15-4.135c5.426-4.113,11.048-7.972,16.419-12.153c9.253-7.204,17.541-15.442,25.228-24.287
		c0.29-0.333,0.386-0.861,0.497-1.317c0.267-1.093-0.02-1.984-0.876-2.536c-0.368-0.237-0.896-0.49-1.278-0.404
		c-5.272,1.172-9.714,4.322-14.682,6.243c-1.807,0.699-3.469,1.697-5.486,1.829c-1.062,0.07-2.178,0.063-2.588-0.883
		c-0.226-0.522,0.27-1.799,0.816-2.144c6.576-4.152,13.249-8.148,19.828-12.295c1.617-1.019,2.984-2.433,4.341-3.563
		c-0.291-1.249-0.231-2.411-0.782-2.96c-0.551-0.55-1.896-0.916-2.577-0.624c-5.397,2.308-11.381,2.365-16.831,4.463
		c-0.541,0.208-1.496-0.662-2.404-1.103c1.112-1.024,2.024-2.295,3.263-2.942c14.74-7.701,27.424-18.455,41.156-27.648
		c0.738-0.494,1.192-1.479,1.638-2.31c0.209-0.389,0.289-1.105,0.067-1.414c-0.503-0.698-1.178-1.665-1.875-1.748
		c-1.412-0.167-2.974-0.086-4.321,0.359c-7.371,2.437-14.673,5.081-22.049,7.5c-1.805,0.592-3.837,0.854-5.403-0.795
		c5.466-4.023,11.023-7.946,16.393-12.11c5.381-4.174,11.07-7.937,16.049-12.66c4.89-4.638,11.558-7.286,15.209-13.372
		c-0.735-0.601-1.335-1.421-2.1-1.629c-0.878-0.239-1.984-0.154-2.85,0.169c-4.543,1.694-9.019,3.568-13.577,5.221
		c-0.752,0.273-1.911-0.025-2.655-0.453c-0.608-0.35-0.254-1.422,0.75-2.121c6.786-4.724,13.477-9.601,20.443-14.046
		c4.99-3.184,9.341-7.007,13.369-11.257c0.625-0.659,0.829-1.718,1.359-2.878c-1.361-0.447-2.662-1.197-3.992-1.25
		c-4.032-0.161-7.372,2.354-11.153,3.167c-1.268,0.273-2.719-0.31-4.184-0.514c0.496-1.139,0.64-2.189,1.242-2.741
		c5.742-5.26,11.36-10.625,17.549-15.429c6.129-4.758,11.477-10.523,17.137-15.878c0.317-0.3,0.489-0.891,0.486-1.344
		c-0.003-0.343-0.369-0.955-0.615-0.977c-0.904-0.081-1.952-0.24-2.718,0.118c-6.609,3.092-13.159,6.311-19.75,9.443
		c-2.204,1.047-4.479,0.884-3.975-0.122c0.392-0.782,0.738-1.716,1.386-2.221c14.461-11.27,13.879-9.642,29.199-26.166
		c0.331-0.358,0.669-0.71,1.011-1.057c12.666-12.857,24.167-26.678,35.18-40.985c11.062-14.369,20.075-29.843,27.763-46.177
		c1.063-2.257,1.374-4.622,1.263-7.098c-0.086-1.924-0.713-2.564-3.87-3.36c-6.91,4.382-13.438,9.396-19.49,15.06
		c-1.743,1.631-3.792,2.978-5.846,4.213c-0.958,0.576-1.773-0.054-2.006-1.419c4.733-5.278,8.94-11.216,11.542-17.993
		c3.721-4.036,7.741-7.524,10.746-12.092c12.032-18.287,24.31-36.408,35.709-55.108c4.562-7.482,8.277-15.434,13.111-22.777
		c1.807-2.745,3.624-5.799,3.976-9.339c0.195-1.957,0.478-3.864-1.189-5.376c-2.578,0.476-3.885,2.679-5.728,4.165
		c-1.489,1.201-3.069,2.309-4.708,3.294c-0.994,0.597-1.929,0.255-2.501-0.592c-0.261-0.387-0.695-0.811-0.678-1.203
		c0.061-1.451-0.009-3,0.48-4.324c3.198-8.649,6.228-17.341,8.416-26.314c2.181-8.941,5.832-17.523,6.546-26.823
		c2.254-3.998,1.583-8.584,2.601-12.807c1.142-4.733,2.539-9.377,2.606-14.301c0.02-1.455-0.072-3.096,0.541-4.327
		c2.694-5.416,1.568-11.559,3.497-17.095C1119.094,326.144,1118.413,319.714,1119.055,313.435z M730.698,480.559
		c1.049-7.687,2.545-15.314,4.499-22.823c3.902-14.998,9.625-29.555,17.302-43.029c3.133-5.498,6.443-10.874,10.929-15.393
		c0.984-0.991,2.261-1.769,3.532-2.373c0.815-0.387,1.46-0.093,1.811,0.598c0.091,0.179,0.167,0.377,0.215,0.605
		c-1.246,2.041-2.995,3.968-3.696,6.22c-2.466,7.925-7.193,14.85-9.671,22.764c-3.706,11.837-8.41,23.252-11.295,35.372
		c-0.781,3.282-1.333,6.613-1.831,9.952c-0.326,2.187-0.637,4.375-0.958,6.557c-0.629,4.279-1.331,8.53-2.463,12.665
		c-0.889,3.248-0.951,6.719-1.452,10.08c-0.348,2.331-3.403,3.72-5.746,2.556c-0.622-0.309-1.119-0.87-1.681-1.451
		c-0.174-0.179-0.352-0.361-0.544-0.537C726.933,499.833,730.241,483.91,730.698,480.559z M689.932,406.511
		c1.605,1.535,1.808,3.564,1.066,5.352c-2.646,6.378-6.739,11.717-12.271,15.913c-0.883,0.67-1.472,0.597-3.822-0.721
		C680.099,414.573,681.951,412.041,689.932,406.511z M660.888,381.447c2.16-5.017,5.584-9.076,9.435-12.806
		c0.486-0.471,1.76-0.574,2.44-0.293c0.38,0.157,0.616,0.448,0.785,0.786c0.25,0.502,0.318,1.132,0.223,1.768
		c-0.143,0.954-0.267,1.912-0.411,2.954c-2.299,4.294-5.564,7.804-9.411,10.578c-1.54-0.197-2.476-0.361-3.004-0.617
		C660.123,383.419,660.307,382.796,660.888,381.447z M522.623,401.554c1.224-12.429,5.238-25.205,15.319-32.746
		c32.098-24.011,50.628-3.919,50.494-3.088c-0.114,0.704-0.976,1.504-1.702,1.837c-0.834,0.382-1.896,0.36-2.835,0.389
		c-10.243,0.315-21.038,3.171-28.285,10.84c-7.549,7.989-10.258,19.528-10.15,30.249c0.049,4.928,0.64,9.924,2.541,14.471
		c5.138,12.29,19.543,16.819,31.68,12.934c4.108-1.315,7.895-3.628,11.842-5.463c1.379-0.64,2.614,0.583,2.36,2.015
		c-0.145,0.818-0.665,1.512-1.169,2.173c-6.303,8.251-13.247,14.462-23.082,18.256c-13.431,5.181-29.096,0.183-37.783-11.255
		c-6.441-8.481-9.18-19.28-9.571-30C522.15,408.589,522.281,405.023,522.623,401.554z M516.153,496.46
		c0.227-0.42,0.499-0.905,0.886-1.137c11.422-6.839,23.466-11.425,37.108-10.775c11.719,0.558,23.128,2.543,34.151,6.573
		c0.471,0.172,0.656,1.284,0.812,1.994c0.026,0.115-0.789,0.579-1.231,0.603c-1.45,0.079-2.907,0.03-6.961,0.03
		c-3.21-0.363-9.021-0.836-14.771-1.708c-11.26-1.708-22.246-0.661-33.079,2.665c-5.081,1.56-10.171,3.102-15.302,4.48
		c-0.54,0.145-1.459-0.809-2.054-1.403C515.56,497.633,515.926,496.881,516.153,496.46z M491.053,537.905
		c5.306-4.282,10.517-8.684,15.889-12.881c7.697-6.014,15.945-11.177,24.814-15.302c12.26-5.703,24.978-7.656,38.396-5.087
		c8.619,1.65,17.267,3.124,25.333,6.708c3.991,1.774,8.002,3.694,11.587,6.155c13.644,9.363,18.837,15.76,31.136,26.957
		c3.233,2.943,14.988,7.704,18.4,10.45c20.9,9.314,9.935,22.165,9.565,22.298c-3.199,1.153-7.319,3.519-10.59,4.426
		c-11.497,3.191-21.454,8.797-30.025,17.256c-6.221,6.139-13.14,11.593-19.924,17.135c-11.764,9.61-25.58,13.905-40.532,14.549
		c-10.103,0.435-19.64-2.266-28.603-6.749c-4.26-2.13-10.724-6.426-14.431-9.415c-12.064-9.726-24.052-19.556-34.205-31.39
		c-1.585-1.847-3.222-3.651-4.869-5.444c-3.684-4.013-7.805-7.261-13.354-8.415c-1.593-0.332-6.992-2.628-10.535-4.271
		c-1.807-0.838-2.618-2.955-1.831-4.785c0.383-0.889,1.108-1.578,2.005-1.942C471.103,553.367,481.211,545.847,491.053,537.905z
		 M553.517,835.128c2.72,0.467,5.395,1.092,7.992,1.876c4.296,1.297,3.711,5.209-0.686,5.874c-6.21,0.94-12.356-0.722-18.627-0.508
		c-6.281,0.214-12.327,0.254-18.46,1.541c-1.667,0.35-3.592,0.916-5.314,0.763c-2.554-0.228-2.444-3.931-1.256-5.333
		c0.745-0.879,1.782-1.458,2.836-1.924C529.89,833.039,543.096,833.339,553.517,835.128z M527.728,814.602
		c0-0.763,0.57-1.48,1.495-1.876c6.739-2.884,15.885-3.662,22.483-0.102c1.271,0.686,2.523,2.049,1.217,3.329
		c-0.54,0.528-1.118,0.962-1.826,1.14c-1.025,0.257-2.806-0.43-3.906-0.53c-1.6-0.146-3.218-0.184-4.824-0.197
		c-3.365-0.026-6.733,0.18-10.07,0.618c-2.003,0.263-3.614,0.408-4.262-0.819C527.836,815.787,527.727,815.278,527.728,814.602z
		 M546.733,680.386c-1.953-0.214-3.681-0.998-5.3-2.146c-0.289-0.205-0.542-0.422-0.776-0.645c-1.197-1.138-1.655-2.542-0.973-4.645
		c1.008-0.316,2.322-1.068,3.641-1.077c3.404-0.023,6.293,2.391,9.821,2.222c3.861-0.185,7.742-0.271,11.601-0.11
		c3.47,0.145,6.589-1.419,9.955-1.604c0.377-0.021,0.784,0.513,1.192,0.8c-0.013,0.041-0.03,0.075-0.043,0.115
		c-1.617,4.988-6.789,4.635-10.177,6.783C559.286,680.823,553.015,681.075,546.733,680.386z M561.612,651.466
		c-7.283-0.238-14.58-0.029-21.871-0.034c-12.082-0.008-22.661-4.808-32.763-10.717c-5.847-3.42-11.378-7.416-16.858-11.418
		c-2.111-1.542-4.335-3.027-6.203-4.982c-1.21-1.266-2.273-2.726-3.05-4.539c1.421-0.343,2.714-0.715,4.033-0.938
		c0.43-0.073,0.979,0.155,1.385,0.396c8.313,4.929,17.474,8.366,25.202,14.326c1.945,1.501,4.153,2.392,6.526,3.091
		c4.172,1.228,8.224,2.866,12.39,4.117c2.298,0.69,4.722,1.296,7.097,1.326c9.233,0.116,18.474,0.155,27.703-0.113
		c5.84-0.17,11.302-2.543,16.924-3.921c6.091-1.492,11.992-3.779,17.945-5.807c11.99-4.084,23.133-9.946,34.061-16.268
		c3.351-1.938,6.792-3.75,10.32-5.333c1.211-0.543,2.841-0.411,4.23-0.221c0.623,0.085,0.971,0.406,1.155,0.835
		c0.159,0.371,0.199,0.822,0.147,1.295c-0.176,1.597-1.083,2.753-2.216,3.62c-11.203,8.566-22.901,16.353-35.932,21.907
		c-4.45,1.897-9.02,3.53-13.596,5.108c-4.563,1.573-9.185,2.983-13.812,4.363C576.987,649.776,569.524,651.726,561.612,651.466z
		 M443.803,374.39c1-1.183,2.609-1.348,3.946-0.996c4.843,1.274,9.287,3.195,12.523,6.748c0.855,0.938,1.644,1.964,2.312,3.153
		c0.139,1.669,0.055,3.209-1.447,3.786c-0.724,0.278-1.974-0.088-2.675-0.594c-4.629-3.34-9.665-5.941-14.757-8.461
		c-0.023-0.011-0.046-0.023-0.069-0.035c-0.348-0.172-0.512-0.714-0.761-1.084C443.169,376.055,443.26,375.032,443.803,374.39z
		 M441.615,419.859c4.216-0.84,8.429-0.71,12.604,0.397c0.487,0.129,1.002,0.578,1.399,1.116c0.539,0.731,0.855,1.633,0.528,2.168
		c-0.445,0.728-1.166,1.32-1.86,1.847c-0.343,0.261-0.899,0.305-1.364,0.329c-0.938,0.048-1.881,0.014-5.106,0.014
		c-0.975-0.044-4.061-0.049-6.582-2.263c-0.133-0.117-0.271-0.212-0.4-0.341c-0.303-0.303-0.38-0.854-0.509-1.304
		C440.077,420.962,440.482,420.084,441.615,419.859z M357.938,386.754c0.06-0.428,0.533-0.798,0.821-1.206
		c0.38,0.312,0.686,0.664,0.966,1.031c1.46,1.916,1.779,4.453,3.112,6.435c3.456,19.649,9.831,38.565,12.724,58.389
		c2.929,20.071,3.546,40.445,2.253,60.677c-0.129,2.011-0.894,3.762-2.412,5.12c-0.348,0.312-0.805,0.589-1.254,0.683
		c-0.366,0.077-0.712-0.011-1.01-0.209c-0.376-0.249-0.671-0.685-0.777-1.33c-0.312-1.91-0.475-3.851-0.581-5.786
		c-0.133-2.427,0.293-4.973-0.288-7.274c-3.522-13.941-2.754-29.598-3.79-44.199c-0.109-1.533-0.231-3.058-0.386-4.564
		c-0.177-1.717-0.367-3.434-0.559-5.151c-0.22-1.968-0.454-3.935-0.697-5.901c-1.317-10.643-3.01-21.247-5.39-31.7
		c-0.59-2.591-1.207-5.176-1.887-7.746C357.296,398.398,357.127,392.561,357.938,386.754z M275.309,639.893
		c0.484-0.299,0.986-0.567,1.506-0.773c10.282-4.084,21.253-6.757,32.138-8.591c6.651-1.121,13.388-1.368,20.119-1.153
		c4.94,0.158,9.876,0.565,14.776,1.06c11.166,1.128,22.348,2.724,33.052,6.097c23.872,7.522,45.261,22.13,63.746,38.731
		c12.922,11.605,24.583,24.686,34.192,39.171c9.345,14.069,15.19,29.319,17.467,45.978c0.989,7.232,1.918,14.483,2.519,21.755
		c0.519,6.281,1.098,12.635-1.481,18.729c-0.958,2.265-4.042,3.217-5.962,1.561c-2.208-1.904-4.293-3.949-6.486-5.871
		c-3.714-3.254-8.017-5.529-12.661-7.087c-13.844-4.643-28.366,3.838-42.499,5.434c-27.238,3.076-55.915-2.884-78.074-19.019
		c-20.291-14.774-34.453-36.946-46.472-58.586c-10.23-18.419-10.917-42.223-10.948-62.755c-0.003-1.947,0.143-7.814,0.075-9.759
		c0,0-2.97,0.678-4.317,0.774c-3.813,0.273-7.696,1.59-11.461-0.308c-0.417-0.21-1.071-0.487-1.113-0.799
		c-0.058-0.439-0.074-0.888-0.057-1.339C273.411,641.956,274.299,640.517,275.309,639.893z M423.936,823.52
		c-24.22-0.723-48.742-3.104-71.395-12.45c-11.138-4.595-22.973-11.105-30.28-20.992c-8.694-11.764-16.735-24.17-25.065-36.227
		c-1.083-1.568-1.842-3.38-2.607-5.141c-0.411-0.947,0.073-1.814,1.009-2.409c0.767,0.585,1.696,1.041,2.277,1.774
		c9.947,12.564,19.921,25.108,29.731,37.779c10.417,13.456,29.506,20.109,45.495,24.221c18.267,4.698,38.553,7.487,57.437,7.359
		c6.328-0.043,12.656-0.215,18.983-0.175c1.362,0.009,2.72,0.689,4.235,1.102c-0.535,0.491-0.81,0.966-1.168,1.04
		C443.124,821.37,433.734,823.812,423.936,823.52z M446.704,844.098c-1.404,0.499-2.585,0.918-3.129,1.038
		c-4.29,0.946-8.637,1.629-13.002,2.115c-7.897,0.879-15.874,1.066-23.815,0.987c-15.279-0.152-38.351-1.06-49.377-13.414
		c-0.815-0.914-1.084-1.831-0.381-2.305c0.766-0.516,1.776-1.015,2.643-0.96c1.422,0.09,2.84,0.555,4.215,1.002
		c22.467,7.293,45.519,8.987,68.921,8.306c3.919-0.114,8.735-0.872,13.272-0.791C448.355,840.116,448.876,843.327,446.704,844.098z
		 M332.609,883.998c27.125-3.964,54.359-3.859,81.633-1.51c11.652,1.004,23.304,1.904,34.786,4.234
		c11.552,2.344,22.715,5.67,31.939,13.482c1.431,1.212,2.568,2.865,3.521,4.5c0.386,0.66,0.074,1.873-0.209,2.741
		c-0.383,1.177-2.649,2.057-3.672,1.557c-1.747-0.853-3.588-1.576-5.192-2.649c-9.112-6.093-19.361-9.003-29.988-10.856
		c-17.776-3.099-35.69-5.219-53.717-5.647c-19.473-0.463-38.965-0.248-58.448-0.202c-7.791,0.018-15.577,0.342-23.256,1.967
		c-1.276,0.27-2.713-0.217-4.495-0.397C314.29,886.557,323.518,885.327,332.609,883.998z M154.168,650.018
		c-0.207,0.305-0.893,0.588-1.212,0.471c-5.072-1.859-9.43-5.087-13.432-8.459c-6.98-5.882-13.628-12.135-19.78-18.852
		c-3.692-4.031-7.206-8.229-10.506-12.613c-5.241-6.964-9.792-14.45-14.589-21.744c-1.864-2.836-3.706-5.705-5.295-8.699
		c-10.455-19.702-11.649-25.652-15.939-46.442c-1.269-6.15-3.078-12.189-4.364-18.336c-0.689-3.292-0.884-6.7-1.092-10.069
		c-0.051-0.833,0.714-1.716,1.207-2.801c1.191,0.823,2.467,1.495,3.454,2.461c0.133,0.13,0.243,0.286,0.349,0.446
		c0.413,0.62,0.661,1.416,0.958,2.126c1.905,4.557,7.138,22.096,8.686,27.659c2.459,8.84,4.29,17.869,7.902,26.377
		c4.373,10.299,9.556,20.163,15.473,29.648c3.08,4.938,6.182,9.864,9.36,14.739c6.112,9.378,13.605,17.684,20.65,26.334
		c0.629,0.772,1.287,1.512,1.968,2.227c4.68,4.919,10.442,8.649,15.361,13.31c0.234,0.222,0.425,0.441,0.584,0.655
		C154.333,649.03,154.471,649.57,154.168,650.018z M179.708,553.058c-25.065-14.441-44.657-34.357-59.243-59.336
		c-20.661-35.384-34.028-73.359-39.572-113.882c-2.374-17.351-3.455-34.946-2.189-54.96c0.26-7.815,0.441-18.056,0.99-28.278
		c0.523-9.728,1.393-19.438,2.179-29.15c1.101-13.605,2.266-27.206,3.404-40.808c0.495-5.925-0.292-11.666-2.383-17.241
		c-1.712-4.562-3.568-9.088-4.939-13.754c-0.801-2.728-0.81-5.696-1.075-8.565c-0.032-0.352,0.487-0.922,0.881-1.096
		c0.331-0.146,1.068-0.012,1.253,0.256c1.358,1.964,2.819,3.894,3.881,6.017c4.14,8.282,8.13,16.64,12.202,24.956
		c3.229,6.594,7.147,12.74,11.88,18.376c21.943,26.131,42.758,53.197,65.886,78.348c22.154,24.091,41.979,50.089,59.99,77.379
		c16.199,24.546,28.648,50.949,35.708,79.669c3.035,12.344,4.893,24.847,4.945,37.599c0.064,15.624-0.278,31.225-3.203,46.624
		c-1.262,6.643-1.901,13.546-5.953,19.349c-0.25,0.358-2.208,6.806-2.655,6.867c-0.178,0.025-1.537-0.308-1.525-0.628
		c0.3-8.265,2.983-23.026,3.255-31.292c0.305-9.259,0.5-18.521,0.748-27.782c0.812-30.299-5.75-58.987-18.501-86.413
		c-8.448-18.17-18.285-35.415-29.795-51.893c-17.914-25.646-37.554-49.787-58.444-73.029c-12.05-13.407-23.301-27.54-34.728-41.497
		c-9.573-11.692-18.864-23.615-28.36-35.372c-0.372-0.461-1.585-0.365-2.386-0.296c-0.311,0.027-0.751,0.672-0.816,1.086
		c-0.375,2.398-0.769,4.802-0.95,7.219c-1.127,15.068-2.444,30.128-3.236,45.215c-1.304,24.842-1.981,49.729-0.397,74.565
		c1.337,20.969,5.283,41.607,11.649,61.644c7.391,23.262,16.594,45.786,28.81,67.033c13.661,23.76,31.92,42.929,55.422,57.06
		c22.269,13.39,45.538,24.353,71.289,29.289c0.894,0.171,1.726,0.835,2.501,1.389c0.34,0.243,0.468,0.787,0.686,1.198
		c0.578,1.091,0.966,2.504-1.195,1.874c-3.375-0.057-6.83,0.135-10.106-0.515c-15.394-3.052-29.951-8.63-43.997-15.51
		C194.186,561.133,186.882,557.191,179.708,553.058z M262.858,729.8c0.002,0.518-0.591,1.143-1.069,1.515
		c-0.244,0.19-1.103,0.08-1.238-0.153c-5.493-9.499-10.985-19-16.293-28.603c-0.449-0.812-0.005-2.726,0.71-3.398
		c0.689-0.648,2.267-0.35,3.455-0.468c6.314,7.543,9.939,16.584,13.965,25.376C263.142,725.715,262.852,727.876,262.858,729.8z
		 M275.603,858.38c-1.288-0.634-2.604-1.31-3.699-2.22c-9.015-7.493-17.479-15.621-24.861-24.688
		c-8.285-10.177-15.737-20.957-19.8-33.737c-4.112-12.933-8.63-25.736-12.917-38.613c-2.45-7.359-4.816-14.746-7.183-22.132
		c-3.127-9.755-7.649-18.894-12.277-27.989c-1.103-2.168-2.177-4.35-3.236-6.539c-0.758-1.568-0.524-3.601,0.544-3.894
		c0.857-0.235,1.83-0.048,3.126-0.048c4.472,3.512,6.948,8.958,9.857,13.923c4.164,7.105,7.522,14.621,10.242,22.493
		c5.542,16.038,10.523,32.257,16.049,48.296c0.947,2.749,2.09,5.454,2.749,8.272c2.817,12.059,9.366,22.318,15.562,32.753
		c0.743,1.25,1.603,2.455,2.565,3.544c7.4,8.384,13.736,17.699,22.118,25.23c1.425,1.28,2.566,2.876,3.795,4.276
		C277.411,858.441,276.533,858.837,275.603,858.38z M294.482,808.941c-9.339-2.345-16.226-8.159-21.506-15.979
		c-1.052-1.559-1.458-3.555-2.135-5.282c0.412-2.087,1.545-3.462,3.879-4.307c4.884,3.735,8.127,9.141,11.931,14.253
		c2.226,1.64,4.591,3.294,6.855,5.076c1.878,1.479,3.887,2.876,5.007,5.492C297.121,808.478,295.669,809.239,294.482,808.941z
		 M439.621,960.844c-0.054,0.463-0.172,1.224-0.438,1.31c-2.299,0.74-4.604,1.74-6.97,1.948c-16.508,1.45-32.894,3.788-49.243,6.433
		c-1.435,0.232-2.911,0.206-4.259,0.293c-1.016-0.338-1.918-0.639-2.82-0.939c0.626-0.62,1.148-1.583,1.894-1.81
		c18.25-5.565,36.85-9.132,55.986-9.382c1.882-0.024,3.778,0.635,5.649,1.058C439.57,959.788,439.663,960.477,439.621,960.844z
		 M432.452,931.665c-23.887-2.517-47.512-0.088-71.186,2.493c-14.501,1.581-28.84,4.038-43.1,7.027
		c-3.316,0.695-6.575,1.666-9.895,2.336c-0.851,0.172-1.836-0.32-2.759-0.507c0.38-0.602,0.622-1.518,1.162-1.753
		c2.663-1.164,5.369-2.251,8.123-3.177c11.074-3.723,22.49-6.119,33.96-8.124c16.271-2.845,32.728-4.352,49.163-5.915
		c5.793-0.551,11.644-0.495,17.468-0.716c11.723-0.351,23.288,1.001,34.791,3.044c5.751,1.022,11.379,2.48,16.647,5.094
		c1.771,0.879,3.461,1.933,4.111,3.885c0.249,0.749-0.096,1.761-0.368,2.588c-0.119,0.358-0.725,0.753-1.133,0.779
		c-0.94,0.061-1.972,0.119-2.833-0.193C455.557,934.52,444.098,932.892,432.452,931.665z M630.287,981.937
		c-0.429,0.773-1.138,1.628-1.92,1.917c-1.347,0.498-2.842,0.607-4.281,0.839c-6.681,1.077-13.632-0.886-20.172,1.791
		c-3.438,5.29-6.842,10.602-10.324,15.863c-2.419,3.656-4.87,7.296-7.453,10.837c-1.133,1.554-2.565,2.912-3.978,4.235
		c-2.508,2.345-7.568,1.054-8.489-2.247c-0.645-2.312-1.151-4.731-1.232-7.119c-0.251-7.303-0.316-14.613-0.354-21.922
		c-0.021-4.135-1.044-7.466-4.943-9.811c-8.123-4.885-13.937-12.078-18.811-20.069c-3.043-4.99-5.983-10.043-8.988-15.056
		c-1.255-2.093-3.555-2.483-4.643-0.699c-6.965,11.438-16.354,20.527-27.263,28.11c-3.384,2.352-5.326,5.183-6.183,9.383
		c-2.144,10.507-5.371,20.74-9.759,30.556c-1.183,2.647-2.428,5.301-4.812,7.221c-1.318,1.062-4.264,1.388-5.418,0.298
		c-1.052-0.995-2.209-1.926-3.063-3.076c-4.67-6.289-8.373-13.13-11.369-20.361c-2.033-4.906-3.487-10.115-7.523-13.979
		c-0.276-0.264,0.178-1.895,0.727-2.299c1.54-1.133,3.204-2.319,5.004-2.835c6.078-1.745,12.188-3.444,18.378-4.711
		c5.863-1.2,11.241-3.387,15.901-7.004c5.762-4.471,11.528-9.014,16.753-14.081c7.485-7.26,12.428-16.172,14.849-26.392
		c0.829-3.498,0.063-7.371-2.65-10.12c-4.447-4.506-6.979-7.375-11.371-11.936c-2.023-2.101-4.089-6.259-4.285-9.028
		c-0.445-6.288-8.797-7.179-12.734-10.818c-2.489-2.301-2.048-6.707,0.415-9.244c6.028-6.209,13.536-9.452,21.957-10.537
		c5.306-0.683,10.685-0.801,16.03-1.172c13.841-0.359,27.096,2.664,40.156,6.811c2.284,0.725,3.592,3.57,2.624,5.958
		c-2.404,5.935-4.091,13.187-9.903,16.756c-1.278,0.785-2.673,1.382-3.874,2.279c-3.104,2.319-4.858,6.089-7.733,8.692
		c-3.656,3.31-7.483,6.276-11.581,9.026c-4.793,3.217-6.085,7.454-5.223,12.566c0.641,3.804,1.536,7.696,3.115,11.187
		c4.842,10.702,11.249,20.49,18.837,29.449c8.023,9.474,18.844,13.795,30.784,14.953c11.148,1.081,22.11,3.501,33.299,4.142
		C630.083,980.364,630.752,981.099,630.287,981.937z M773.763,786.565c-11.466,18.497-28.04,30.764-47.925,38.733
		c-14.43,5.782-32.16,7.193-47.557,7.276c-12.596,0.068-26.851-1.456-36.853-9.931c-1.031-0.873-1.638-2.247-2.424-3.362
		c1.817-1.586,3.906-1.841,5.632-1.038c14.534,6.763,32.663,6.48,48.221,4.616c15.37-1.842,29.655-4.979,43.421-12.27
		c15.073-7.983,26.144-20.018,36.454-33.045c4.215-5.326,8.235-10.805,12.373-16.192c0.279-0.363,0.801-0.541,1.21-0.805
		c0.987,0.325,1.654,1.161,1.185,2.101c-2.376,4.758-4.775,9.513-7.407,14.132C778.172,780.15,775.809,783.264,773.763,786.565z
		 M777.93,832.175c-4.999,6.886-15.913,10.273-23.44,13.516c-8.95,3.856-18.23,7.037-27.834,8.79
		c-13.388,2.445-27.123,2.088-40.706,1.237c-11.639-0.729-23.212-2.198-34.134-6.441c-2.228-0.866-4.318-2.085-6.595-3.207
		c0.632-0.733,1.133-1.803,1.616-1.795c3.39,0.056,7.022-0.372,10.105,0.705c5.663,1.979,12.39,1.828,18.341,2.607
		c6.905,0.904,13.833,1.806,20.811,1.765c7.958-0.046,15.854-1.304,23.71-2.579c19.904-3.23,37.724-11.087,56.956-16.776
		C778.617,830.504,778.718,831.089,777.93,832.175z M685.391,885.593c17.367-2.683,34.797-4.487,52.312-5.49
		c13.153-0.753,26.271,0.212,39.375,2.389c-11.641,0.852-23.285,1.656-34.92,2.567c-21.391,1.675-42.636,4.381-63.639,8.896
		c-20.146,4.331-39.361,11.085-57.382,21.159c-5.101,2.851-10.276,5.594-15.57,8.055c-1.626,0.756-3.776,0.6-5.66,0.472
		c-0.677-0.046-1.366-1.175-1.866-1.931c-0.203-0.306-0.085-1.084,0.181-1.394c0.927-1.077,1.842-2.259,3.01-3.021
		C626.937,900.511,655.067,890.277,685.391,885.593z M711.847,978.535c-0.384,0.241-0.882,0.344-1.342,0.41
		c-0.473,0.068-0.964,0.016-1.5,0.016c-16.158-3.301-31.656-8.523-45.933-17.034c-1.096-0.653-1.421-1.568-0.738-1.951
		c0.788-0.442,1.777-0.571,2.698-0.708c0.452-0.067,0.989,0.061,1.416,0.257c14.495,6.672,29.45,12.174,44.467,17.521
		C712.239,977.517,712.577,978.078,711.847,978.535z M792.774,935.213c-2.968,0.008-5.96,0.153-8.899-0.167
		c-12.783-1.396-25.527-3.18-38.326-4.376c-28.64-2.675-57.319-3.629-86.012-0.708c-6.92,0.704-13.666,2.192-20.093,4.99
		c-1.313,0.571-2.845,0.861-4.276,0.858c-0.82-0.002-2.034-0.677-2.346-1.372c-0.314-0.704-0.051-2.155,0.515-2.671
		c1.79-1.634,3.647-3.446,5.826-4.354c5.5-2.293,11.284-3.699,17.295-3.934c11.871-0.465,23.741-0.939,33.415-1.323
		c17.535,1.03,32.893,1.046,48.115,3.506c9.761,1.578,19.637,2.433,29.44,3.77c8.318,1.135,16.608,2.472,24.897,3.803
		c0.64,0.103,1.173,0.865,1.756,1.319C793.644,934.784,793.21,935.212,792.774,935.213z M819.349,652.105
		c0.394-0.254-1.795,22.718-6.082,34.787c-4.755,21.648-18.485,43.251-32.801,59.409c-23.925,27.004-53.757,41.323-88.78,50.016
		c-14.359,3.564-28.934,3.555-43.364-0.14c-11.791-3.019-23.566-6.077-34.566-11.536c-3.822-1.897-7.743-1.177-10.935,1.564
		c-2.562,2.2-4.801,4.804-7.019,7.371c-3.169,3.668-6.138,7.511-9.328,11.161c-0.475,0.543-1.792,0.778-2.531,0.548
		c-0.816-0.253-1.859-1.109-2.025-1.872c-0.507-2.335-1.046-4.787-0.843-7.13c0.63-7.281,1.724-14.527,4.202-21.441
		c3.776-10.536,7.17-21.259,11.737-31.45c14.649-32.69,36.02-60.082,66.066-80.059c15.859-10.544,32.961-18.95,50.86-25.396
		c13.813-4.975,28.369-6.798,43.069-7.061c1.947-0.035,3.896-0.005,4.311-0.005c15.3-0.728,28.735,1.216,41.88,5.248
		c7.442,2.283,14.864,4.632,22.258,7.063C829.826,643.884,833.505,652.105,819.349,652.105z M848.856,789.105
		c-3.689,6.642-7.91,13.1-14.143,17.983c-0.75,0.587-1.557,1.251-2.44,1.474c-0.806,0.204-1.855,0.068-2.606-0.304
		c-0.824-0.408-1.034-1.583-0.388-2.496c3.625-5.122,7.365-10.162,11.016-15.266c1.68-2.348,3.243-4.78,4.826-7.125
		c3.584-0.024,3.788,0.148,3.945,2.643C849.126,786.966,848.944,787.931,848.856,789.105z M850.001,723.675
		c-0.957,0.632-1.873,0.071-2.273-0.969c6.855-8.791,13.712-17.585,20.589-26.404c1.384,0.553,1.761,1.927,1.606,3.243
		c-0.166,1.409-0.624,2.866-1.299,4.117C864.158,711.938,857.817,718.517,850.001,723.675z M878.568,707.465
		c0.358-0.852,1.047-1.564,1.583-2.341c0.9-0.138,1.799-0.274,2.708-0.412c1.955,1.916,2.01,4.397,1.381,6.687
		c-1.794,6.524-4.707,12.53-9.283,17.615c-2.616,2.908-5.868,4.818-9.606,5.924c-0.309-0.364-0.909-0.764-0.869-1.084
		c0.114-0.919,0.264-1.974,0.794-2.679C870.771,723.862,875.032,715.873,878.568,707.465z M956.47,646.857
		c-1.337,2.018-3.242,3.658-4.58,5.675c-3.475,5.234-7.615,10.076-9.362,16.347c-0.644,2.313-1.814,4.517-2.982,6.64
		c-8.47,15.393-14.069,31.947-19.704,48.486c-3.287,9.648-6.928,19.138-11.208,28.408c-10.213,22.121-22.052,43.288-36.139,63.184
		c-1.968,2.78-3.792,5.675-6.826,7.469c-0.886-0.197-1.638-1.039-1.157-1.932c4.133-7.68,8.188-15.416,12.67-22.893
		c15.298-25.523,27.731-52.341,36.282-80.849c6.183-20.612,15.889-39.605,25.563-58.657c1.563-3.08,3.422-5.902,5.799-8.359
		c3.383-3.497,6.876-6.887,10.342-10.302c0.989-0.974,1.02-0.942,3.859,0.31C959.026,642.866,957.753,644.921,956.47,646.857z
		 M1074.165,469.876c-3.053,7.648-5.536,15.566-10.475,22.329c-5.656,11.976-13.446,22.513-21.772,32.73
		c-5.527,6.783-10.518,14.005-16.071,20.766c-7.751,9.437-16.329,18.135-25.696,25.963c-4.057,3.391-8.348,6.671-13.32,8.761
		c-0.947,0.398-1.776-0.167-2.406-1.438c4.884-5.882,10.519-11.278,16.145-16.635c5.682-5.411,10.251-11.73,15.321-17.635
		c5.387-6.276,10.606-12.703,15.732-19.195c4.819-6.103,9.589-12.259,14.073-18.608c4.488-6.353,8.386-13.125,12.93-19.434
		c4.57-6.344,7.577-13.575,11.661-19.966c1.22-0.096,2.227-0.45,3.002-0.167C1074.298,467.714,1074.583,468.829,1074.165,469.876z
		 M1097.14,247.932c-5.143,5.177-10.736,9.922-16.284,14.677c-2.781,2.383-4.28,5.201-4.548,8.781
		c-0.109,1.458-0.357,2.908-0.418,4.367c-0.924,22.042-5.578,43.479-10.865,64.768c-6.339,25.53-12.989,50.98-20.923,76.086
		c-3.388,10.722-7.24,21.209-12.253,31.26c-15.957,31.996-35.019,61.94-59.005,88.581c-17.704,19.664-37.188,37.247-60.085,50.788
		c-3.775,2.233-7.456,4.625-11.164,6.969c-7.936,5.018-16.751,7.836-25.75,10.096c-2.804,0.704-5.787,0.695-8.502,0.993
		c-1.649-0.349-3.075-0.635-4.493-0.954c-1.849-0.416-3.619-2.637-2.857-4.353c1.713-3.857,1.189-7.552,0.266-11.415
		c-1.697-7.103-3.225-14.247-4.812-21.377c-3.543-15.908-3.213-32.011-1.712-48.049c1.133-12.118,2.986-24.198,5.16-36.179
		c2.004-11.043,6.131-21.529,9.995-32.052c12.5-34.046,33.197-62.721,58.042-88.677c22.377-23.377,47.524-43.328,74.965-60.423
		c9.93-6.186,19.797-12.483,29.899-18.378c13.077-7.632,25.527-16.172,37.766-25.046c15.128-10.969,28.254-23.899,38.829-39.381
		c3.832-5.61,7.343-11.535,12.903-15.746c0.38-0.288,1.201-0.67,1.265-0.587c0.471,0.619,1.283,1.515,1.107,2.011
		C1117.884,220.972,1109.358,235.635,1097.14,247.932z"/>
	<path fill="currentColor" d="M803.388,652.284c-7.949-2.082-15.836-4.406-23.797-6.448c-0.8-0.205-3.811-0.546-4.526-0.063
		c0,0,1.246,3.229,1.864,4.367c7.12,13.124,8.029,39.249,7.163,58.333c-0.125,2.752-1.129,5.394-1.658,8.099
		c-0.12,0.611-0.445,4.344,0.075,4.29c-0.909,1.314,1.624-0.144,14.348-22.527c7.41-13.035,9.915-27.689,11.732-43.364
		C808.695,654.069,809.493,653.883,803.388,652.284z"/>
	<path fill="currentColor" d="M701.619,654.043c-2.528-1.302-36.569,20.139-50.053,31.637c-6.719,5.729-10.737,12.536-12.157,20.981
		c-1.616,9.609-3.43,19.217-3.151,26.277c-0.619,20.994,5.092,37.262,15.352,52.093c0.818,1.183,1.823,2.264,3.044,3.037
		c1.535,0.973,3.09,1.006,4.877,1.165c2.536,0.225,5.073,0.394,7.619,0.391c8.277-0.01,17.302-0.546,25.477-2.836
		c1.412-0.396,8.206-3.157,10.033-3.903c0.26-0.106,0.39-0.383,0.305-0.65c-1.278-4.012-10.827-32.922-10.954-44.732
		C691.365,676.946,704.086,655.314,701.619,654.043z"/>
	<path fill="currentColor" d="M299.087,650.139c-0.051,7.733,0.147,15.523,1.036,23.196c4.657,38.025,17.435,54.048,17.605,51.152
		c0.004-0.066-11.926-44.468,8.226-75.139c1.114-2.142,4.311-7.047,5.533-9.135c0.707-1.21-18.492-2.079-32.407,1.914
		C299.08,642.126,299.135,642.788,299.087,650.139z"/>
	<path fill="currentColor" d="M443.819,707.369c1.295,7.918,2.867,16.815,1.792,24.815c-4.87,36.26-17.483,45.656-22.173,51.357
		c-0.73,0.888-3.804,3.468-2.972,4.156c1.008,0.832,5.13,0.284,6.239,0.104c2.851-0.462,5.695-1.307,8.379-2.4
		c5.893-2.401,11.999-3.923,18.165-5.43c8.62-2.108,16.423-0.326,23.924,3.742c2.556,1.386,4.847,3.253,7.33,4.786
		c0.639,0.394,1.326,0.712,2.024,1.012c3.518,1.514,1.873-5.543,1.66-6.965c-0.184-1.225-0.355-2.451-0.525-3.676
		c-0.512-3.71-0.998-7.417-1.697-11.108c-2.661-13.913-6.149-28.18-13.9-40.205c-4.874-7.562-10.016-14.971-15.768-21.896
		c-1.164-1.402-15.928-16.982-16.238-16.61c-0.691,0.841,0.913,4.792,1.133,5.871C442.039,699.083,443.132,703.167,443.819,707.369z
		"/>
	<path fill="currentColor" d="M332.918,746.303c7.078,15.138,24.523,27.161,39.883,32.703c0.339,0.122,3.16,2.033,2.976,1.263
		c-0.449-1.871-2.321-7.731-3.003-9.545c-8.148-21.655-11.367-44.16-11.386-67.178c-0.004-4.837,0.652-9.679,1.088-14.511
		c1.011-11.228,6.269-31.125,9.819-41.71c0.673-1.8-0.043-1.36-9.205-3.475c-6.576-1.518-16.683-2.209-23.397-3.071
		c-0.062-0.008-1.919,2.517-2.391,3.294c-8.769,14.454-14.207,29.844-14.182,41.076
		C321.307,717.547,323.616,726.376,332.918,746.303z"/>
	<path fill="currentColor" d="M1066.766,273.13c-14.307,10.211-29.567,18.9-44.526,28.072c-16.63,10.197-33.022,20.765-48.466,32.722
		c-28.346,21.945-53.15,47.293-73.466,76.9c-15.063,21.952-25.421,46.186-31.915,71.805c-4.662,18.392-7.118,37.354-6.904,54.88
		c-0.478,20.978,1.331,29.741,6.303,55.191c0.274,1.405,1.945,2.644,3.129,2.428c8.685-1.583,16.994-4.25,24.72-8.579
		c28.784-16.126,53.93-36.681,75.512-61.66c21.503-24.889,38.854-52.467,53.248-81.932c3.838-7.854,7.11-16.067,9.789-24.39
		c10.902-33.872,20.059-68.246,28.201-102.874c3.119-13.266,5.207-26.776,7.68-40.191c0.153-0.832-0.172-2.122-0.761-2.606
		C1068.828,272.5,1067.399,272.678,1066.766,273.13z"/>
	<path fill="currentColor" d="M550.45,890.879c-1.447-2.929,0.228-6.167,2.891-6.916c1.389-0.391,2.792-0.831,4.217-0.979
		c3.367-0.351,6.762-0.437,10.124-0.829c2.822-0.329,6.75-5.484,6.56-8.638c-0.041-0.681-0.977-1.733-1.663-1.887
		c-11.351-2.544-22.762-4.706-36.684-4.558c-3.112,0.248-8.421,0.698-13.735,1.086c-4.438,0.324-8.492,1.881-12.432,3.79
		c-0.849,0.412-1.594,1.072-2.315,1.701c-0.343,0.299-0.538,0.781-0.765,1.2c-0.486,0.898-0.153,1.72,1.073,2.053
		c5.121,1.39,6.387,1.293,11.478,2.781c3.458,1.011,8.368,6.242,6.105,9.334c-3.05,4.167-3.032,4.148-0.345,7.099
		c0.326,0.358,0.652,0.717,0.978,1.075c13.374,14.703,8.222,12.623,22.913,1.253C551.477,896.411,552.048,894.115,550.45,890.879z"
		/>
	<path fill="currentColor" d="M477.642,979.214c-6.313,0.621-7.493,1.877-4.253,8.217c2.391,4.677,5.142,9.17,7.779,13.719
		c0.62,1.07,2.9,0.745,3.528-0.431c3.405-6.384,5.333-13.288,6.985-20.269c0.148-0.624-0.824-1.511-1.458-2.586
		C486.127,978.306,481.888,978.796,477.642,979.214z"/>
	<path fill="currentColor" d="M592.969,984.474c-3.231-0.716-6.475-1.372-8.696-1.838c-1.555,0.138-2.027,0.214-2.499,0.215
		c-1.407,0.004-2.913,1.371-2.737,2.595c0.741,5.157,1.504,10.311,2.318,15.457c0.036,0.226,0.631,0.474,0.986,0.511
		c0.451,0.046,1.063,0.051,1.366-0.207c4.391-3.738,7.507-8.507,10.633-13.268C594.958,986.995,594.111,984.727,592.969,984.474z"/>
	<path fill="currentColor" d="M634.041,771.747c-4.582-11.353-7.466-23.03-6.528-35.398c0.439-5.79,0.956-11.574,1.462-17.359
		c0.084-0.963,0.313-1.912,0.442-2.873c0.271-2.019-0.321-3.746-1.056-3.317c-0.819,0.479-1.785,1.024-2.217,1.802
		c-1.201,2.165-16.412,25.504-21.953,40.453c-2.798,7.547-6.125,14.994-8.834,22.603c-0.557,1.563,1.424,2.781,2.585,1.597
		l2.593-2.643c1.552-1.582,3.234-3.237,5.4-3.703c1.581-0.34,3.237,0.008,4.746,0.589c3.869,1.489,6.961,4.412,10.76,6.038
		c4.351,1.862,9.084,3.167,13.764,3.835c1.478,0.211,3.237-1.197,2.782-2.289C636.689,777.964,635.305,774.88,634.041,771.747z"/>
	<path fill="currentColor" d="M478.508,563.083c6.361,2.272,14.084,11.358,14.084,11.358c-3.862-9.768,0-28.169,0-28.169
		c-4.771,8.405-18.401,12.04-19.991,13.289C471.011,560.811,472.147,560.811,478.508,563.083z"/>
	<path fill="currentColor" d="M657.971,569.671c4.543,0,1.78-3.635-2.045-5.225c-1.47-0.611-20.493-7.196-26.138-13.004
		c-0.355-0.365-0.96-0.047-0.87,0.454c1.034,5.754,3.104,20.414-0.48,30.269C628.068,583.186,653.428,569.671,657.971,569.671z"/>
</g>
</svg>
